<svg width="14" height="14" viewBox="0 0 14 14" fill="none" xmlns="http://www.w3.org/2000/svg">
<path d="M7.74954 6.99712L13.3775 1.36362C13.4768 1.26384 13.5325 1.12878 13.5324 0.988014C13.5323 0.847252 13.4765 0.712264 13.377 0.612617C13.178 0.414617 12.8275 0.413617 12.6265 0.613617L7.00004 6.24712L1.37154 0.612117C1.17154 0.414617 0.821041 0.415617 0.622041 0.613117C0.572647 0.662314 0.533546 0.720856 0.50702 0.785326C0.480493 0.849797 0.467073 0.918905 0.467541 0.988617C0.467541 1.13062 0.522541 1.26362 0.622041 1.36212L6.25004 6.99662L0.622541 12.6316C0.523234 12.7316 0.467621 12.8668 0.467902 13.0077C0.468183 13.1486 0.524336 13.2836 0.624041 13.3831C0.720541 13.4786 0.857041 13.5336 0.998041 13.5336H1.00104C1.14254 13.5331 1.27904 13.4776 1.37354 13.3811L7.00004 7.74762L12.6285 13.3826C12.728 13.4816 12.861 13.5366 13.002 13.5366C13.0717 13.5367 13.1407 13.523 13.2051 13.4964C13.2695 13.4697 13.328 13.4307 13.3773 13.3814C13.4266 13.3321 13.4657 13.2736 13.4923 13.2092C13.5189 13.1448 13.5326 13.0758 13.5325 13.0061C13.5325 12.8646 13.4775 12.7311 13.3775 12.6326L7.74954 6.99712Z" fill="#E74D0C"/>
</svg>
